<svg width="24" height="24" viewBox="0 0 24 24" fill="none" xmlns="http://www.w3.org/2000/svg"><path d="M13.183 9.048l-.499 1.752h1.835a.48.48 0 01.368.787l-3.19 3.828c-.351.42-1.027.06-.87-.465l.519-1.75H9.48a.48.48 0 01-.368-.788l3.201-3.826c.348-.418 1.02-.061.871.462M9.6 3a.6.6 0 10-1.2 0v1.8h-.6a3 3 0 00-3 3v.6H3a.6.6 0 000 1.2h1.8v1.8H3a.6.6 0 100 1.2h1.8v1.8H3a.6.6 0 100 1.2h1.8v.6a3 3 0 003 3h.6V21a.6.6 0 101.2 0v-1.8h1.8V21a.6.6 0 101.2 0v-1.8h1.8V21a.6.6 0 101.2 0v-1.8h.6a3 3 0 003-3v-.6H21a.6.6 0 000-1.2h-1.8v-1.8H21a.6.6 0 000-1.2h-1.8V9.6H21a.6.6 0 000-1.2h-1.8v-.6a3 3 0 00-3-3h-.6V3a.6.6 0 10-1.2 0v1.8h-1.8V3a.6.6 0 10-1.2 0v1.8H9.6V3zm6.6 3A1.8 1.8 0 0118 7.8v8.4a1.8 1.8 0 01-1.8 1.8H7.8A1.8 1.8 0 016 16.2V7.8A1.8 1.8 0 017.8 6h8.4z" fill="#ff7f17"/></svg>
