<svg width="15" height="15" viewBox="0 0 24 24" fill="none" xmlns="http://www.w3.org/2000/svg">
<path d="M18 6H4C2.89543 6 2 6.89543 2 8V16C2 17.1046 2.89543 18 4 18H18C19.1046 18 20 17.1046 20 16V8C20 6.89543 19.1046 6 18 6Z" stroke="#246D99" stroke-opacity="0.88" stroke-width="2" stroke-linecap="round" stroke-linejoin="round"/>
<path d="M11.4 9L9 12H13L10.6 15M20 10H21.5C21.6326 10 21.7598 10.0527 21.8536 10.1464C21.9473 10.2402 22 10.3674 22 10.5V13.5C22 13.6326 21.9473 13.7598 21.8536 13.8536C21.7598 13.9473 21.6326 14 21.5 14H20V10Z" stroke="#246D99" stroke-opacity="0.88" stroke-width="2" stroke-linecap="round" stroke-linejoin="round"/>
</svg>
