<svg width="1" height="1" viewBox="0 0 22 22" fill="none" xmlns="http://www.w3.org/2000/svg">
<path d="M7.15458 3.17992C7.48 2.85542 7.74675 2.75 8.19225 2.75H13.8077C14.2532 2.75 14.5209 2.85542 14.8454 3.17992L18.8201 7.15458C19.1446 7.47908 19.25 7.74675 19.25 8.19225V13.8077C19.25 14.2661 19.1354 14.5301 18.8201 14.8454L14.8454 18.8201C14.5209 19.1446 14.2532 19.25 13.8077 19.25H8.19225C7.73392 19.25 7.46992 19.1354 7.15458 18.8201L3.18083 14.8454C2.85542 14.52 2.75 14.2532 2.75 13.8077V8.19225C2.75 7.73392 2.86458 7.46992 3.17992 7.15458L7.15458 3.17992Z" stroke="#62A8F4" stroke-opacity="0.7" stroke-width="1.5" stroke-linecap="round" stroke-linejoin="round"/>
<path d="M11 5.5V11L14.6667 12.8333" stroke="#62A8F4" stroke-opacity="0.7" stroke-width="1.5" stroke-linecap="round" stroke-linejoin="round"/>
</svg>
