<svg width="15" height="15" viewBox="0 0 24 24" fill="none" xmlns="http://www.w3.org/2000/svg">
<path d="M13.1832 9.04802L12.684 10.8H14.5188C14.61 10.8001 14.6993 10.8262 14.7762 10.8751C14.8531 10.9241 14.9145 10.994 14.9531 11.0766C14.9918 11.1592 15.0061 11.251 14.9944 11.3415C14.9827 11.4319 14.9456 11.5172 14.8872 11.5872L11.6976 15.4152C11.346 15.8352 10.6704 15.4752 10.8264 14.9496L11.346 13.2H9.47999C9.38859 13.2001 9.29905 13.1741 9.22191 13.1251C9.14477 13.0761 9.08324 13.006 9.04454 12.9232C9.00585 12.8404 8.9916 12.7483 9.00348 12.6576C9.01536 12.567 9.05287 12.4817 9.11159 12.4116L12.3132 8.58602C12.6612 8.16843 13.3332 8.52482 13.1844 9.04802M9.59999 3.00002C9.59999 2.84089 9.53678 2.68828 9.42426 2.57576C9.31174 2.46324 9.15912 2.40002 8.99999 2.40002C8.84086 2.40002 8.68825 2.46324 8.57573 2.57576C8.46321 2.68828 8.39999 2.84089 8.39999 3.00002V4.80002H7.79999C7.00434 4.80002 6.24128 5.1161 5.67867 5.6787C5.11606 6.24131 4.79999 7.00437 4.79999 7.80002V8.40002H2.99999C2.84086 8.40002 2.68825 8.46324 2.57573 8.57576C2.46321 8.68828 2.39999 8.84089 2.39999 9.00002C2.39999 9.15915 2.46321 9.31177 2.57573 9.42429C2.68825 9.53681 2.84086 9.60002 2.99999 9.60002H4.79999V11.4H2.99999C2.84086 11.4 2.68825 11.4632 2.57573 11.5758C2.46321 11.6883 2.39999 11.8409 2.39999 12C2.39999 12.1592 2.46321 12.3118 2.57573 12.4243C2.68825 12.5368 2.84086 12.6 2.99999 12.6H4.79999V14.4H2.99999C2.84086 14.4 2.68825 14.4632 2.57573 14.5758C2.46321 14.6883 2.39999 14.8409 2.39999 15C2.39999 15.1592 2.46321 15.3118 2.57573 15.4243C2.68825 15.5368 2.84086 15.6 2.99999 15.6H4.79999V16.2C4.79999 16.9957 5.11606 17.7587 5.67867 18.3213C6.24128 18.884 7.00434 19.2 7.79999 19.2H8.39999V21C8.39999 21.1592 8.46321 21.3118 8.57573 21.4243C8.68825 21.5368 8.84086 21.6 8.99999 21.6C9.15912 21.6 9.31174 21.5368 9.42426 21.4243C9.53678 21.3118 9.59999 21.1592 9.59999 21V19.2H11.4V21C11.4 21.1592 11.4632 21.3118 11.5757 21.4243C11.6883 21.5368 11.8409 21.6 12 21.6C12.1591 21.6 12.3117 21.5368 12.4243 21.4243C12.5368 21.3118 12.6 21.1592 12.6 21V19.2H14.4V21C14.4 21.1592 14.4632 21.3118 14.5757 21.4243C14.6883 21.5368 14.8409 21.6 15 21.6C15.1591 21.6 15.3117 21.5368 15.4243 21.4243C15.5368 21.3118 15.6 21.1592 15.6 21V19.2H16.2C16.9956 19.2 17.7587 18.884 18.3213 18.3213C18.8839 17.7587 19.2 16.9957 19.2 16.2V15.6H21C21.1591 15.6 21.3117 15.5368 21.4243 15.4243C21.5368 15.3118 21.6 15.1592 21.6 15C21.6 14.8409 21.5368 14.6883 21.4243 14.5758C21.3117 14.4632 21.1591 14.4 21 14.4H19.2V12.6H21C21.1591 12.6 21.3117 12.5368 21.4243 12.4243C21.5368 12.3118 21.6 12.1592 21.6 12C21.6 11.8409 21.5368 11.6883 21.4243 11.5758C21.3117 11.4632 21.1591 11.4 21 11.4H19.2V9.60002H21C21.1591 9.60002 21.3117 9.53681 21.4243 9.42429C21.5368 9.31177 21.6 9.15915 21.6 9.00002C21.6 8.84089 21.5368 8.68828 21.4243 8.57576C21.3117 8.46324 21.1591 8.40002 21 8.40002H19.2V7.80002C19.2 7.00437 18.8839 6.24131 18.3213 5.6787C17.7587 5.1161 16.9956 4.80002 16.2 4.80002H15.6V3.00002C15.6 2.84089 15.5368 2.68828 15.4243 2.57576C15.3117 2.46324 15.1591 2.40002 15 2.40002C14.8409 2.40002 14.6883 2.46324 14.5757 2.57576C14.4632 2.68828 14.4 2.84089 14.4 3.00002V4.80002H12.6V3.00002C12.6 2.84089 12.5368 2.68828 12.4243 2.57576C12.3117 2.46324 12.1591 2.40002 12 2.40002C11.8409 2.40002 11.6883 2.46324 11.5757 2.57576C11.4632 2.68828 11.4 2.84089 11.4 3.00002V4.80002H9.59999V3.00002ZM16.2 6.00002C16.6774 6.00002 17.1352 6.18967 17.4728 6.52723C17.8104 6.8648 18 7.32263 18 7.80002V16.2C18 16.6774 17.8104 17.1353 17.4728 17.4728C17.1352 17.8104 16.6774 18 16.2 18H7.79999C7.3226 18 6.86477 17.8104 6.5272 17.4728C6.18964 17.1353 5.99999 16.6774 5.99999 16.2V7.80002C5.99999 7.32263 6.18964 6.8648 6.5272 6.52723C6.86477 6.18967 7.3226 6.00002 7.79999 6.00002H16.2Z" fill="#246D99"/>
</svg>
