<svg width="24" height="24" viewBox="0 0 24 24" fill="none" xmlns="http://www.w3.org/2000/svg">
<path d="M11 20H5.616C5.15533 20 4.771 19.846 4.463 19.538C4.155 19.23 4.00067 18.8453 4 18.384V5.616C4 5.15533 4.15433 4.771 4.463 4.463C4.77167 4.155 5.156 4.00067 5.616 4H11V20ZM10 19V5H5.616C5.436 5 5.28833 5.05767 5.173 5.173C5.05767 5.28833 5 5.436 5 5.616V18.385C5 18.5643 5.05767 18.7117 5.173 18.827C5.28833 18.9423 5.436 19 5.616 19H10ZM13 11V4H18.385C18.845 4 19.229 4.15433 19.537 4.463C19.845 4.77167 19.9993 5.156 20 5.616V11H13ZM14 10H19V5.616C19 5.436 18.9423 5.28833 18.827 5.173C18.7117 5.05767 18.5643 5 18.385 5H14V10ZM13 20V13H20V18.385C20 18.845 19.846 19.229 19.538 19.537C19.23 19.845 18.8453 19.9993 18.384 20H13ZM14 19H18.385C18.5643 19 18.7117 18.9423 18.827 18.827C18.9423 18.7117 19 18.5643 19 18.385V14H14V19Z" fill="#D9593E"/>
</svg>
