<svg width="24" height="24" viewBox="0 0 24 24" fill="none" xmlns="http://www.w3.org/2000/svg">
<g clip-path="url(#clip0_6_81)">
<path d="M22.5 13.5H19.5C19.0937 13.5 18.7422 13.3555 18.4453 13.0664C18.1484 12.7773 18 12.4219 18 12C18 11.5781 18.1484 11.2227 18.4453 10.9336C18.7422 10.6445 19.0937 10.5 19.5 10.5H22.5C22.9219 10.5 23.2773 10.6445 23.5664 10.9336C23.8555 11.2227 24 11.5781 24 12C24 12.4219 23.8555 12.7773 23.5664 13.0664C23.2773 13.3555 22.9219 13.5 22.5 13.5ZM18.4219 7.71094C18.125 8.00781 17.7656 8.15625 17.3438 8.15625C16.9219 8.15625 16.5625 8.00781 16.2656 7.71094C15.9687 7.41406 15.8203 7.05469 15.8203 6.63281C15.8203 6.21094 15.9687 5.85156 16.2656 5.55469L18.4219 3.42188C18.7031 3.125 19.0547 2.97656 19.4766 2.97656C19.8984 2.97656 20.2578 3.125 20.5547 3.42188C20.8516 3.71875 21 4.07812 21 4.5C21 4.92188 20.8516 5.27344 20.5547 5.55469L18.4219 7.71094ZM12 24C11.5781 24 11.2227 23.8555 10.9336 23.5664C10.6445 23.2773 10.5 22.9219 10.5 22.5V19.5C10.5 19.0937 10.6484 18.7422 10.9453 18.4453C11.2422 18.1484 11.5977 18 12.0117 18C12.4258 18 12.7773 18.1484 13.0664 18.4453C13.3555 18.7422 13.5 19.0937 13.5 19.5V22.5C13.5 22.9219 13.3555 23.2773 13.0664 23.5664C12.7773 23.8555 12.4219 24 12 24ZM12.0117 6C11.5977 6 11.2422 5.85156 10.9453 5.55469C10.6484 5.25781 10.5 4.90625 10.5 4.5V1.5C10.5 1.07812 10.6484 0.722656 10.9453 0.433594C11.2422 0.144531 11.5937 0 12 0C12.4063 0 12.7578 0.144531 13.0547 0.433594C13.3516 0.722656 13.5 1.07812 13.5 1.5V4.5C13.5 4.92188 13.3555 5.27734 13.0664 5.56641C12.7773 5.85547 12.4258 6 12.0117 6ZM5.55469 20.5547C5.27344 20.8516 4.92188 21 4.5 21C4.07812 21 3.71875 20.8516 3.42188 20.5547C3.125 20.2578 2.97656 19.8984 2.97656 19.4766C2.97656 19.0547 3.125 18.7031 3.42188 18.4219L5.55469 16.2656C5.85156 15.9687 6.21094 15.8203 6.63281 15.8203C7.05469 15.8203 7.41406 15.9687 7.71094 16.2656C8.00781 16.5625 8.15625 16.9219 8.15625 17.3438C8.15625 17.7656 8.00781 18.125 7.71094 18.4219L5.55469 20.5547ZM5.55469 7.71094L3.42188 5.55469C3.125 5.27344 2.97656 4.92188 2.97656 4.5C2.97656 4.07812 3.125 3.71875 3.42188 3.42188C3.71875 3.125 4.07812 2.97656 4.5 2.97656C4.92188 2.97656 5.27344 3.125 5.55469 3.42188L7.71094 5.55469C8.00781 5.85156 8.15625 6.21094 8.15625 6.63281C8.15625 7.05469 8.00781 7.41406 7.71094 7.71094C7.41406 8.00781 7.05469 8.15625 6.63281 8.15625C6.21094 8.15625 5.85156 8.00781 5.55469 7.71094ZM6 12.0117C6 12.4258 5.85156 12.7773 5.55469 13.0664C5.25781 13.3555 4.90625 13.5 4.5 13.5H1.5C1.07812 13.5 0.722656 13.3555 0.433594 13.0664C0.144531 12.7773 0 12.4219 0 12C0 11.5781 0.144531 11.2227 0.433594 10.9336C0.722656 10.6445 1.07812 10.5 1.5 10.5H4.5C4.90625 10.5 5.25781 10.6484 5.55469 10.9453C5.85156 11.2422 6 11.5977 6 12.0117ZM18.4219 16.2656L20.5547 18.4219C20.8516 18.7031 21 19.0547 21 19.4766C21 19.8984 20.8516 20.2578 20.5547 20.5547C20.2578 20.8516 19.8984 21 19.4766 21C19.0547 21 18.7031 20.8516 18.4219 20.5547L16.2656 18.4219C15.9687 18.125 15.8203 17.7656 15.8203 17.3438C15.8203 16.9219 15.9687 16.5625 16.2656 16.2656C16.5625 15.9687 16.9219 15.8203 17.3438 15.8203C17.7656 15.8203 18.125 15.9687 18.4219 16.2656Z" fill="#F9EBC6" fill-opacity="0.7"/>
</g>
<defs>
<clipPath id="clip0_6_81">
<rect width="24" height="24" fill="white"/>
</clipPath>
</defs>
</svg>
