<svg width="24" height="24" viewBox="0 0 24 24" fill="none" xmlns="http://www.w3.org/2000/svg">
<path d="M12 1V9M6.994 4.52C6.506 4.8468 6.05117 5.22058 5.636 5.636C4.3245 6.94792 3.45042 8.63305 3.13338 10.4608C2.81635 12.2885 3.07184 14.1696 3.86489 15.8466C4.65795 17.5236 5.94983 18.9145 7.56374 19.8291C9.17765 20.7437 11.0347 21.1372 12.8809 20.9558C14.7271 20.7745 16.4721 20.0271 17.8771 18.8159C19.2822 17.6047 20.2787 15.989 20.7303 14.1897C21.1818 12.3905 21.0664 10.4956 20.3997 8.76454C19.733 7.03343 18.5477 5.55061 17.006 4.519" stroke="#F9EBC6" stroke-opacity="0.7" stroke-width="2.6"/>
</svg>
