<svg width="14" height="14" viewBox="0 0 14 14" fill="none" xmlns="http://www.w3.org/2000/svg">
<path d="M4 10.0001H1C0.716667 10.0001 0.479333 9.90406 0.288 9.71206C0.0966668 9.52006 0.000666667 9.28273 0 9.00006V5.00006C0 4.71673 0.0960001 4.47939 0.288 4.28806C0.48 4.09673 0.717333 4.00073 1 4.00006H4L7.3 0.700061C7.61667 0.383394 7.97933 0.312394 8.388 0.487061C8.79667 0.661727 9.00067 0.974394 9 1.42506V12.5751C9 13.0251 8.796 13.3377 8.388 13.5131C7.98 13.6884 7.61733 13.6174 7.3 13.3001L4 10.0001ZM13.5 7.00006C13.5 7.70006 13.3417 8.36273 13.025 8.98806C12.7083 9.61339 12.2917 10.1257 11.775 10.5251C11.6083 10.6251 11.4377 10.6294 11.263 10.5381C11.0883 10.4467 11.0007 10.3007 11 10.1001V3.85006C11 3.65006 11.0877 3.50439 11.263 3.41306C11.4383 3.32173 11.609 3.32573 11.775 3.42506C12.2917 3.84173 12.7083 4.36673 13.025 5.00006C13.3417 5.63339 13.5 6.30006 13.5 7.00006Z" fill="#D9593E" fill-opacity="0.9"/>
</svg>
